RobotoDelta-XOPQmin.ufo
<glyph name="exclam" format="1">
  <advance width="476"/>
  <unicode hex="0021"/>
  <outline>
    <contour>
      <point x="186" y="97" type="qcurve" smooth="yes"/>
      <point x="186" y="48"/>
      <point x="213" y="-22"/>
      <point x="238" y="-22" type="qcurve" smooth="yes"/>
      <point x="263" y="-22"/>
      <point x="290" y="48"/>
      <point x="290" y="97" type="qcurve" smooth="yes"/>
      <point x="290" y="146"/>
      <point x="263" y="216"/>
      <point x="238" y="216" type="qcurve" smooth="yes"/>
      <point x="213" y="216"/>
      <point x="186" y="146"/>
    </contour>
    <contour>
      <point x="216" y="410" type="line"/>
      <point x="260" y="410" type="line"/>
      <point x="265" y="1456" type="line"/>
      <point x="211" y="1456" type="line"/>
    </contour>
  </outline>
</glyph>
<glyph name="numbersign" format="1">
  <advance width="1364"/>
  <unicode hex="0023"/>
  <outline>
    <contour>
      <point x="216" y="-20" type="line"/>
      <point x="270" y="-20" type="line"/>
      <point x="732" y="1476" type="line"/>
      <point x="678" y="1476" type="line"/>
    </contour>
    <contour>
      <point x="632" y="-20" type="line"/>
      <point x="686" y="-20" type="line"/>
      <point x="1148" y="1476" type="line"/>
      <point x="1094" y="1476" type="line"/>
    </contour>
    <contour>
      <point x="64" y="404" type="line"/>
      <point x="1225" y="404" type="line"/>
      <point x="1225" y="542" type="line"/>
      <point x="64" y="542" type="line"/>
    </contour>
    <contour>
      <point x="140" y="914" type="line"/>
      <point x="1300" y="914" type="line"/>
      <point x="1300" y="1052" type="line"/>
      <point x="140" y="1052" type="line"/>
    </contour>
  </outline>
</glyph>
<glyph name="dollar" format="1">
  <advance width="920"/>
  <unicode hex="0024"/>
  <outline>
    <contour>
      <point x="90" y="411" type="line" smooth="yes"/>
      <point x="90" y="221"/>
      <point x="297" y="0"/>
      <point x="469" y="0" type="qcurve" smooth="yes"/>
      <point x="640.0" y="0.0"/>
      <point x="840.0" y="221.0"/>
      <point x="840" y="394" type="qcurve" smooth="yes"/>
      <point x="840.0" y="567.0"/>
      <point x="695.5171233887629" y="757.0"/>
      <point x="500" y="820" type="qcurve" smooth="yes"/>
      <point x="304.38442176317454" y="884.0"/>
      <point x="171.0" y="989.0"/>
      <point x="171" y="1076" type="qcurve" smooth="yes"/>
      <point x="171.0" y="1181.0"/>
      <point x="311.0" y="1298.0"/>
      <point x="459" y="1298" type="qcurve" smooth="yes"/>
      <point x="607" y="1298"/>
      <point x="757" y="1162"/>
      <point x="757" y="1051" type="qcurve" smooth="yes"/>
      <point x="757" y="1039" type="line"/>
      <point x="811" y="1039" type="line"/>
      <point x="811" y="1051" type="line" smooth="yes"/>
      <point x="811" y="1220"/>
      <point x="620" y="1456"/>
      <point x="459" y="1456" type="qcurve" smooth="yes"/>
      <point x="298.0" y="1456.0"/>
      <point x="117.0" y="1239.0"/>
      <point x="117" y="1076" type="qcurve" smooth="yes"/>
      <point x="117.0" y="912.0"/>
      <point x="286.46918300533287" y="734.0"/>
      <point x="482" y="668" type="qcurve" smooth="yes"/>
      <point x="677.597238755419" y="603.0"/>
      <point x="786.0" y="490.0"/>
      <point x="786" y="394" type="qcurve" smooth="yes"/>
      <point x="786.0" y="288.0"/>
      <point x="622.0" y="158.0"/>
      <point x="469" y="158" type="qcurve" smooth="yes"/>
      <point x="315" y="158"/>
      <point x="144" y="284"/>
      <point x="144" y="411" type="qcurve" smooth="yes"/>
      <point x="144" y="423" type="line"/>
      <point x="90" y="423" type="line"/>
    </contour>
    <contour>
      <point x="439" y="-150" type="line"/>
      <point x="489" y="-150" type="line"/>
      <point x="489" y="90" type="line"/>
      <point x="489" y="100" type="line"/>
      <point x="489" y="728" type="line"/>
      <point x="439" y="728" type="line"/>
    </contour>
    <contour>
      <point x="439" y="728" type="line"/>
      <point x="489" y="728" type="line"/>
      <point x="489" y="1606" type="line"/>
      <point x="439" y="1606" type="line"/>
      <point x="439" y="1366" type="line"/>
      <point x="439" y="1356" type="line"/>
    </contour>
  </outline>
</glyph>
<glyph name="percent" format="1">
  <advance width="1345"/>
  <unicode hex="0025"/>
  <outline>
    <contour>
      <point x="70" y="1016" type="line" smooth="yes"/>
      <point x="70" y="856"/>
      <point x="170" y="660"/>
      <point x="280" y="660" type="qcurve" smooth="yes"/>
      <point x="390" y="660"/>
      <point x="490" y="856"/>
      <point x="490" y="1016" type="qcurve" smooth="yes"/>
      <point x="490" y="1120" type="line" smooth="yes"/>
      <point x="490" y="1280"/>
      <point x="390" y="1476"/>
      <point x="280" y="1476" type="qcurve" smooth="yes"/>
      <point x="170" y="1476"/>
      <point x="70" y="1280"/>
      <point x="70" y="1120" type="qcurve" smooth="yes"/>
    </contour>
    <contour>
      <point x="120" y="1016" type="qcurve" smooth="yes"/>
      <point x="120" y="1120" type="line" smooth="yes"/>
      <point x="120" y="1210"/>
      <point x="190" y="1326"/>
      <point x="280" y="1326" type="qcurve" smooth="yes"/>
      <point x="370" y="1326"/>
      <point x="440" y="1210"/>
      <point x="440" y="1120" type="qcurve" smooth="yes"/>
      <point x="440" y="1016" type="line" smooth="yes"/>
      <point x="440" y="926"/>
      <point x="370" y="810"/>
      <point x="280" y="810" type="qcurve" smooth="yes"/>
      <point x="190" y="810"/>
      <point x="120" y="926"/>
    </contour>
    <contour>
      <point x="205" y="58" type="line"/>
      <point x="249" y="-30" type="line"/>
      <point x="1140" y="1398" type="line"/>
      <point x="1096" y="1486" type="line"/>
    </contour>
    <contour>
      <point x="855" y="336" type="line" smooth="yes"/>
      <point x="855" y="176"/>
      <point x="955" y="-20"/>
      <point x="1065" y="-20" type="qcurve" smooth="yes"/>
      <point x="1175" y="-20"/>
      <point x="1275" y="176"/>
      <point x="1275" y="336" type="qcurve" smooth="yes"/>
      <point x="1275" y="440" type="line" smooth="yes"/>
      <point x="1275" y="600"/>
      <point x="1175" y="796"/>
      <point x="1065" y="796" type="qcurve" smooth="yes"/>
      <point x="955" y="796"/>
      <point x="855" y="600"/>
      <point x="855" y="440" type="qcurve" smooth="yes"/>
    </contour>
    <contour>
      <point x="905" y="336" type="qcurve" smooth="yes"/>
      <point x="905" y="440" type="line" smooth="yes"/>
      <point x="905" y="530"/>
      <point x="975" y="646"/>
      <point x="1065" y="646" type="qcurve" smooth="yes"/>
      <point x="1155" y="646"/>
      <point x="1225" y="530"/>
      <point x="1225" y="440" type="qcurve" smooth="yes"/>
      <point x="1225" y="336" type="line" smooth="yes"/>
      <point x="1225" y="246"/>
      <point x="1155" y="130"/>
      <point x="1065" y="130" type="qcurve" smooth="yes"/>
      <point x="975" y="130"/>
      <point x="905" y="246"/>
    </contour>
  </outline>
</glyph>
<glyph name="parenright" format="1">
  <advance width="560"/>
  <unicode hex="0029"/>
  <outline>
    <contour>
      <point x="36" y="-436" type="line"/>
      <point x="200" y="-340"/>
      <point x="436" y="120"/>
      <point x="436" y="515" type="qcurve" smooth="yes"/>
      <point x="436" y="525" type="line" smooth="yes"/>
      <point x="436" y="920"/>
      <point x="200" y="1380"/>
      <point x="36" y="1476" type="qcurve"/>
      <point x="36" y="1316" type="line"/>
      <point x="170" y="1240"/>
      <point x="381" y="880"/>
      <point x="381" y="532" type="qcurve" smooth="yes"/>
      <point x="381" y="508" type="line" smooth="yes"/>
      <point x="381" y="160"/>
      <point x="170" y="-200"/>
      <point x="36" y="-276" type="qcurve"/>
    </contour>
  </outline>
</glyph>
<glyph name="slash" format="1">
  <advance width="464"/>
  <unicode hex="002F"/>
  <outline>
    <contour>
      <point x="-100" y="-125" type="line"/>
      <point x="-44" y="-125" type="line"/>
      <point x="564" y="1456" type="line"/>
      <point x="508" y="1456" type="line"/>
    </contour>
  </outline>
</glyph>
<glyph name="one" format="1">
  <advance width="1156"/>
  <unicode hex="0031"/>
  <outline>
    <contour>
      <point x="610" y="0" type="line"/>
      <point x="664" y="0" type="line"/>
      <point x="664" y="1476" type="line"/>
      <point x="634" y="1476" type="line"/>
      <point x="242" y="1276" type="line"/>
      <point x="242" y="1090" type="line"/>
      <point x="610" y="1245" type="line"/>
    </contour>
  </outline>
</glyph>
<glyph name="nine" format="1">
  <advance width="1156"/>
  <unicode hex="0039"/>
  <outline>
    <contour>
      <point x="208" y="1002" type="qcurve" smooth="yes"/>
      <point x="208" y="786"/>
      <point x="391.0" y="520.0"/>
      <point x="546" y="520" type="qcurve" smooth="yes"/>
      <point x="701.0" y="520.0"/>
      <point x="916.0" y="786.0"/>
      <point x="916" y="1002" type="qcurve"/>
      <point x="886" y="1002" type="line"/>
      <point x="886.0" y="847.0"/>
      <point x="686.0" y="678.0"/>
      <point x="556" y="678" type="qcurve" smooth="yes"/>
      <point x="416.0" y="678.0"/>
      <point x="262.0" y="847.0"/>
      <point x="262" y="1002" type="qcurve" smooth="yes"/>
      <point x="262.0" y="1157.0"/>
      <point x="416.0" y="1328.0"/>
      <point x="556" y="1328" type="qcurve" smooth="yes"/>
      <point x="696" y="1328"/>
      <point x="880" y="1112"/>
      <point x="880" y="852" type="qcurve" smooth="yes"/>
      <point x="880" y="802" type="line" smooth="yes"/>
      <point x="880" y="452"/>
      <point x="606" y="128"/>
      <point x="376" y="128" type="qcurve" smooth="yes"/>
      <point x="356" y="128" type="line"/>
      <point x="356" y="-30" type="line"/>
      <point x="376" y="-30" type="line" smooth="yes"/>
      <point x="636" y="-30"/>
      <point x="934" y="432"/>
      <point x="934" y="812" type="qcurve" smooth="yes"/>
      <point x="934" y="842" type="line" smooth="yes"/>
      <point x="934" y="1182"/>
      <point x="711" y="1486"/>
      <point x="556" y="1486" type="qcurve" smooth="yes"/>
      <point x="401.0" y="1486.0"/>
      <point x="208" y="1218"/>
    </contour>
  </outline>
</glyph>
<glyph name="equal" format="1">
  <advance width="1170"/>
  <unicode hex="003D"/>
  <outline>
    <contour>
      <point x="213" y="390" type="line"/>
      <point x="957" y="390" type="line"/>
      <point x="957" y="554" type="line"/>
      <point x="213" y="554" type="line"/>
    </contour>
    <contour>
      <point x="213" y="794" type="line"/>
      <point x="957" y="794" type="line"/>
      <point x="957" y="958" type="line"/>
      <point x="213" y="958" type="line"/>
    </contour>
  </outline>
</glyph>
<glyph name="K" format="1">
  <advance width="1020"/>
  <unicode hex="004B"/>
  <outline>
    <contour>
      <point x="170" y="0" type="line"/>
      <point x="224" y="0" type="line"/>
      <point x="224" y="500" type="line"/>
      <point x="1024" y="1456" type="line"/>
      <point x="954" y="1456" type="line"/>
      <point x="224" y="740" type="line"/>
      <point x="224" y="1456" type="line"/>
      <point x="170" y="1456" type="line"/>
    </contour>
    <contour>
      <point x="972" y="0" type="line"/>
      <point x="1040" y="0" type="line"/>
      <point x="416" y="890" type="line"/>
      <point x="380" y="756" type="line"/>
    </contour>
  </outline>
</glyph>
<glyph name="asciicircum" format="1">
  <advance width="1040"/>
  <unicode hex="005E"/>
  <outline>
    <contour>
      <point x="25" y="720" type="line"/>
      <point x="95" y="720" type="line"/>
      <point x="520" y="1290" type="line"/>
      <point x="945" y="720" type="line"/>
      <point x="1015" y="720" type="line"/>
      <point x="540" y="1456" type="line"/>
      <point x="500" y="1456" type="line"/>
    </contour>
  </outline>
</glyph>
<glyph name="k" format="1">
  <advance width="796"/>
  <unicode hex="006B"/>
  <outline>
    <contour>
      <point x="148" y="0" type="line"/>
      <point x="202" y="0" type="line"/>
      <point x="202" y="351" type="line"/>
      <point x="762" y="1052" type="line"/>
      <point x="690" y="1052" type="line"/>
      <point x="202" y="578" type="line"/>
      <point x="202" y="1536" type="line"/>
      <point x="148" y="1536" type="line"/>
    </contour>
    <contour>
      <point x="744" y="0" type="line"/>
      <point x="812" y="0" type="line"/>
      <point x="334" y="678" type="line"/>
      <point x="297" y="545" type="line"/>
    </contour>
  </outline>
</glyph>
<glyph name="u" format="1">
  <advance width="874"/>
  <unicode hex="0075"/>
  <outline>
    <contour>
      <point x="138" y="373" type="line" smooth="yes"/>
      <point x="138" y="161"/>
      <point x="279" y="-20"/>
      <point x="399" y="-20" type="qcurve" smooth="yes"/>
      <point x="489" y="-20"/>
      <point x="632" y="63"/>
      <point x="676" y="135" type="qcurve"/>
      <point x="678" y="135" type="line"/>
      <point x="678" y="0" type="line"/>
      <point x="726" y="0" type="line"/>
      <point x="726" y="1052" type="line"/>
      <point x="672" y="1052" type="line"/>
      <point x="672" y="308" type="line"/>
      <point x="633" y="232"/>
      <point x="498" y="136"/>
      <point x="409" y="136" type="qcurve" smooth="yes"/>
      <point x="305" y="136"/>
      <point x="192" y="245"/>
      <point x="192" y="371" type="qcurve" smooth="yes"/>
      <point x="192" y="1052" type="line"/>
      <point x="138" y="1052" type="line"/>
    </contour>
  </outline>
</glyph>
<glyph name="braceleft" format="1">
  <advance width="570"/>
  <unicode hex="007B"/>
  <outline>
    <contour>
      <point x="540" y="-312" type="qcurve"/>
      <point x="540" y="-166" type="line"/>
      <point x="392" y="-166"/>
      <point x="244" y="2"/>
      <point x="282" y="123" type="qcurve" smooth="yes"/>
      <point x="332" y="334" type="line" smooth="yes"/>
      <point x="352" y="418"/>
      <point x="280" y="548"/>
      <point x="182" y="574" type="qcurve"/>
      <point x="280" y="600"/>
      <point x="352" y="730"/>
      <point x="332" y="814" type="qcurve" smooth="yes"/>
      <point x="282" y="1025" type="line" smooth="yes"/>
      <point x="244" y="1146"/>
      <point x="392" y="1314"/>
      <point x="540" y="1314" type="qcurve"/>
      <point x="540" y="1460" type="line"/>
      <point x="380" y="1460"/>
      <point x="185" y="1180"/>
      <point x="226" y="1025" type="qcurve" smooth="yes"/>
      <point x="276" y="814" type="line" smooth="yes"/>
      <point x="307" y="707"/>
      <point x="176" y="640"/>
      <point x="64" y="640" type="qcurve"/>
      <point x="64" y="508" type="line"/>
      <point x="176" y="508"/>
      <point x="307" y="441"/>
      <point x="276" y="334" type="qcurve" smooth="yes"/>
      <point x="226" y="123" type="line" smooth="yes"/>
      <point x="185" y="-32"/>
      <point x="380" y="-312"/>
    </contour>
  </outline>
</glyph>
<glyph name="braceright" format="1">
  <advance width="570"/>
  <unicode hex="007D"/>
  <outline>
    <contour>
      <point x="30" y="-312" type="line"/>
      <point x="190" y="-312"/>
      <point x="385" y="-32"/>
      <point x="344" y="123" type="qcurve" smooth="yes"/>
      <point x="294" y="334" type="line" smooth="yes"/>
      <point x="263" y="441"/>
      <point x="394" y="508"/>
      <point x="506" y="508" type="qcurve"/>
      <point x="506" y="640" type="line"/>
      <point x="394" y="640"/>
      <point x="263" y="707"/>
      <point x="294" y="814" type="qcurve" smooth="yes"/>
      <point x="344" y="1025" type="line" smooth="yes"/>
      <point x="385" y="1180"/>
      <point x="190" y="1460"/>
      <point x="30" y="1460" type="qcurve"/>
      <point x="30" y="1314" type="line"/>
      <point x="178" y="1314"/>
      <point x="326" y="1146"/>
      <point x="288" y="1025" type="qcurve" smooth="yes"/>
      <point x="238" y="814" type="line" smooth="yes"/>
      <point x="218" y="730"/>
      <point x="290" y="600"/>
      <point x="388" y="574" type="qcurve"/>
      <point x="290" y="548"/>
      <point x="218" y="418"/>
      <point x="238" y="334" type="qcurve" smooth="yes"/>
      <point x="288" y="123" type="line" smooth="yes"/>
      <point x="326" y="2"/>
      <point x="178" y="-166"/>
      <point x="30" y="-166" type="qcurve"/>
    </contour>
  </outline>
</glyph>
<glyph name="cent" format="1">
  <advance width="792"/>
  <unicode hex="00A2"/>
  <outline>
    <contour>
      <point x="85" y="520" type="line" smooth="yes"/>
      <point x="85" y="286.4074074074074"/>
      <point x="277.0" y="-10.0"/>
      <point x="445" y="-10" type="qcurve" smooth="yes"/>
      <point x="598.0" y="-10.0"/>
      <point x="757" y="217"/>
      <point x="757" y="357" type="qcurve"/>
      <point x="757" y="362" type="line"/>
      <point x="703" y="362" type="line"/>
      <point x="703" y="357" type="line"/>
      <point x="703" y="272"/>
      <point x="580.0" y="142.0"/>
      <point x="445" y="142" type="qcurve" smooth="yes"/>
      <point x="288.0" y="142.0"/>
      <point x="139" y="361.20103092783506"/>
      <point x="139" y="520" type="qcurve" smooth="yes"/>
      <point x="139" y="552" type="line" smooth="yes"/>
      <point x="139" y="710.7989690721649"/>
      <point x="288.0" y="930.0"/>
      <point x="445" y="930" type="qcurve" smooth="yes"/>
      <point x="580.0" y="930.0"/>
      <point x="703" y="800"/>
      <point x="703" y="715" type="qcurve" smooth="yes"/>
      <point x="703" y="710" type="line"/>
      <point x="757" y="710" type="line"/>
      <point x="757" y="715" type="line" smooth="yes"/>
      <point x="757" y="855"/>
      <point x="598.0" y="1082.0"/>
      <point x="445" y="1082" type="qcurve" smooth="yes"/>
      <point x="277.0" y="1082.0"/>
      <point x="85" y="785.5925925925926"/>
      <point x="85" y="552" type="qcurve" smooth="yes"/>
    </contour>
    <contour>
      <point x="414" y="-256" type="line"/>
      <point x="468" y="-256" type="line"/>
      <point x="468" y="54" type="line"/>
      <point x="468" y="60" type="line"/>
      <point x="468" y="541" type="line"/>
      <point x="414" y="541" type="line"/>
      <point x="414" y="60" type="line"/>
      <point x="414" y="54" type="line"/>
    </contour>
    <contour>
      <point x="414" y="541" type="line"/>
      <point x="468" y="541" type="line"/>
      <point x="468" y="1022" type="line"/>
      <point x="468" y="1028" type="line"/>
      <point x="468" y="1328" type="line"/>
      <point x="414" y="1328" type="line"/>
      <point x="414" y="1028" type="line"/>
      <point x="414" y="1022" type="line"/>
    </contour>
  </outline>
</glyph>
<glyph name="sterling" format="1">
  <advance width="914"/>
  <unicode hex="00A3"/>
  <outline>
    <contour>
      <point x="120" y="0" type="line"/>
      <point x="838" y="0" type="line"/>
      <point x="838" y="156" type="line"/>
      <point x="238" y="156" type="line"/>
      <point x="290" y="200"/>
      <point x="368" y="340"/>
      <point x="368" y="440" type="qcurve" smooth="yes"/>
      <point x="368" y="580"/>
      <point x="284" y="930"/>
      <point x="284" y="1060" type="qcurve" smooth="yes"/>
      <point x="284" y="1190"/>
      <point x="408" y="1314"/>
      <point x="523" y="1314" type="qcurve" smooth="yes"/>
      <point x="638" y="1314"/>
      <point x="768" y="1190"/>
      <point x="768" y="1065" type="qcurve" smooth="yes"/>
      <point x="768" y="1045" type="line"/>
      <point x="822" y="1045" type="line"/>
      <point x="822" y="1065" type="line" smooth="yes"/>
      <point x="822" y="1250"/>
      <point x="666" y="1476"/>
      <point x="523" y="1476" type="qcurve" smooth="yes"/>
      <point x="380" y="1476"/>
      <point x="230" y="1250"/>
      <point x="230" y="1060" type="qcurve" smooth="yes"/>
      <point x="230" y="890"/>
      <point x="314" y="560"/>
      <point x="314" y="400" type="qcurve" smooth="yes"/>
      <point x="314" y="300"/>
      <point x="205" y="160"/>
      <point x="120" y="150" type="qcurve"/>
    </contour>
    <contour>
      <point x="100" y="640" type="line"/>
      <point x="768" y="640" type="line"/>
      <point x="768" y="796" type="line"/>
      <point x="100" y="796" type="line"/>
    </contour>
  </outline>
</glyph>
<glyph name="section" format="1">
  <advance width="981.0"/>
  <unicode hex="00A7"/>
  <outline>
    <contour>
      <point x="127" y="576" type="qcurve" smooth="yes"/>
      <point x="127" y="420"/>
      <point x="295" y="251"/>
      <point x="457" y="188" type="qcurve" smooth="yes"/>
      <point x="665" y="127"/>
      <point x="796.0" y="19.0"/>
      <point x="796.0" y="-72.0" type="qcurve" smooth="yes"/>
      <point x="796.0" y="-173.0"/>
      <point x="623.0" y="-296.0"/>
      <point x="479.0" y="-296.0" type="qcurve" smooth="yes"/>
      <point x="335.0" y="-296.0"/>
      <point x="154.0" y="-176.0"/>
      <point x="154.0" y="-56.0" type="qcurve" smooth="yes"/>
      <point x="154.0" y="-44.0" type="line"/>
      <point x="100.0" y="-44.0" type="line"/>
      <point x="100.0" y="-56.0" type="line" smooth="yes"/>
      <point x="100.0" y="-236.0"/>
      <point x="307.0" y="-446.0"/>
      <point x="479.0" y="-446.0" type="qcurve" smooth="yes"/>
      <point x="650.0" y="-446.0"/>
      <point x="850.0" y="-236.0"/>
      <point x="850.0" y="-72.0" type="qcurve" smooth="yes"/>
      <point x="850.0" y="92.0"/>
      <point x="690.0" y="273.0"/>
      <point x="510.0" y="333.0" type="qcurve" smooth="yes"/>
      <point x="327.0" y="394.0"/>
      <point x="181.0" y="493.0"/>
      <point x="181.0" y="576.0" type="qcurve" smooth="yes"/>
      <point x="181" y="676"/>
      <point x="321" y="787"/>
      <point x="469" y="787" type="qcurve"/>
      <point x="390" y="900" type="line"/>
      <point x="263" y="860"/>
      <point x="127" y="693"/>
    </contour>
    <contour>
      <point x="158" y="1125" type="qcurve" smooth="yes"/>
      <point x="158" y="969"/>
      <point x="306.0" y="800.0"/>
      <point x="488.0" y="737.0" type="qcurve" smooth="yes"/>
      <point x="676.0" y="676.0"/>
      <point x="827.0" y="568.0"/>
      <point x="827.0" y="477.0" type="qcurve" smooth="yes"/>
      <point x="827.0" y="376.0"/>
      <point x="663.0" y="253.0"/>
      <point x="510.0" y="253.0" type="qcurve"/>
      <point x="620" y="150" type="line"/>
      <point x="737" y="195"/>
      <point x="881.0" y="366.0"/>
      <point x="881.0" y="477.0" type="qcurve" smooth="yes"/>
      <point x="881.0" y="641.0"/>
      <point x="701.0" y="822.0"/>
      <point x="541.0" y="882.0" type="qcurve" smooth="yes"/>
      <point x="336.0" y="943.0"/>
      <point x="212.0" y="1042.0"/>
      <point x="212.0" y="1125.0" type="qcurve" smooth="yes"/>
      <point x="212.0" y="1225.0"/>
      <point x="360.0" y="1336.0"/>
      <point x="500.0" y="1336.0" type="qcurve" smooth="yes"/>
      <point x="640.0" y="1336.0"/>
      <point x="798.0" y="1207.0"/>
      <point x="798.0" y="1101.0" type="qcurve" smooth="yes"/>
      <point x="798.0" y="1090.0" type="line"/>
      <point x="852.0" y="1090.0" type="line"/>
      <point x="852.0" y="1101.0" type="line" smooth="yes"/>
      <point x="852.0" y="1262.0"/>
      <point x="670.0" y="1486.0"/>
      <point x="500.0" y="1486.0" type="qcurve" smooth="yes"/>
      <point x="330.0" y="1486.0"/>
      <point x="158" y="1280"/>
    </contour>
  </outline>
</glyph>
<glyph name="copyright" format="1">
  <advance width="1538"/>
  <unicode hex="00A9"/>
  <outline>
    <contour>
      <point x="94" y="698" type="qcurve" smooth="yes"/>
      <point x="94" y="364"/>
      <point x="494" y="-82"/>
      <point x="769" y="-82" type="qcurve" smooth="yes"/>
      <point x="1044" y="-82"/>
      <point x="1444" y="364"/>
      <point x="1444" y="698" type="qcurve" smooth="yes"/>
      <point x="1444" y="1032"/>
      <point x="1044" y="1478"/>
      <point x="769" y="1478" type="qcurve" smooth="yes"/>
      <point x="494" y="1478"/>
      <point x="94" y="1032"/>
    </contour>
    <contour>
      <point x="146" y="698" type="qcurve" smooth="yes"/>
      <point x="146" y="962"/>
      <point x="503" y="1332"/>
      <point x="769" y="1332" type="qcurve" smooth="yes"/>
      <point x="1035" y="1332"/>
      <point x="1392" y="962"/>
      <point x="1392" y="698" type="qcurve" smooth="yes"/>
      <point x="1392" y="434"/>
      <point x="1035" y="64"/>
      <point x="769" y="64" type="qcurve" smooth="yes"/>
      <point x="503" y="64"/>
      <point x="146" y="434"/>
    </contour>
    <contour>
      <point x="476" y="668" type="line" smooth="yes"/>
      <point x="476" y="488.0"/>
      <point x="644.0" y="264.0"/>
      <point x="770" y="264" type="qcurve" smooth="yes"/>
      <point x="888.8783068783068" y="264.0"/>
      <point x="1044" y="440"/>
      <point x="1044" y="570" type="qcurve" smooth="yes"/>
      <point x="1044" y="580" type="line"/>
      <point x="992" y="580" type="line"/>
      <point x="992" y="570" type="line" smooth="yes"/>
      <point x="992" y="490.0"/>
      <point x="874.0" y="404.0"/>
      <point x="770" y="404" type="qcurve" smooth="yes"/>
      <point x="656.0" y="404.0"/>
      <point x="528" y="548.0"/>
      <point x="528" y="668" type="qcurve" smooth="yes"/>
      <point x="528" y="748" type="line" smooth="yes"/>
      <point x="528" y="868.0"/>
      <point x="656.0" y="1012.0"/>
      <point x="770" y="1012" type="qcurve" smooth="yes"/>
      <point x="874.0" y="1012.0"/>
      <point x="992" y="926.0"/>
      <point x="992" y="846" type="qcurve" smooth="yes"/>
      <point x="992" y="836" type="line"/>
      <point x="1044" y="836" type="line"/>
      <point x="1044" y="846" type="line" smooth="yes"/>
      <point x="1044" y="976"/>
      <point x="888.8783068783068" y="1152.0"/>
      <point x="770" y="1152" type="qcurve" smooth="yes"/>
      <point x="644.0" y="1152.0"/>
      <point x="476" y="928.0"/>
      <point x="476" y="748" type="qcurve" smooth="yes"/>
    </contour>
  </outline>
</glyph>
<glyph name="ordfeminine" format="1">
  <advance width="680"/>
  <unicode hex="00AA"/>
  <outline>
    <contour>
      <point x="66" y="870" type="qcurve" smooth="yes"/>
      <point x="66" y="744"/>
      <point x="187" y="611"/>
      <point x="274" y="611" type="qcurve" smooth="yes"/>
      <point x="368" y="611"/>
      <point x="481" y="689"/>
      <point x="513" y="740" type="qcurve"/>
      <point x="517" y="709"/>
      <point x="533" y="646"/>
      <point x="545" y="627" type="qcurve"/>
      <point x="590" y="627" type="line"/>
      <point x="590" y="639" type="line"/>
      <point x="576" y="674"/>
      <point x="560" y="764"/>
      <point x="560" y="815" type="qcurve" smooth="yes"/>
      <point x="560" y="1192" type="line" smooth="yes"/>
      <point x="560" y="1333"/>
      <point x="443" y="1476"/>
      <point x="343" y="1476" type="qcurve" smooth="yes"/>
      <point x="243" y="1476"/>
      <point x="114" y="1324"/>
      <point x="114" y="1222" type="qcurve" smooth="yes"/>
      <point x="114" y="1216" type="line"/>
      <point x="164" y="1216" type="line"/>
      <point x="164" y="1222" type="line" smooth="yes"/>
      <point x="164" y="1269"/>
      <point x="249" y="1340"/>
      <point x="339" y="1340" type="qcurve" smooth="yes"/>
      <point x="429" y="1340"/>
      <point x="510" y="1257"/>
      <point x="510" y="1192" type="qcurve" smooth="yes"/>
      <point x="510" y="1135" type="line"/>
      <point x="323" y="1135" type="line" smooth="yes"/>
      <point x="211" y="1135"/>
      <point x="66" y="996"/>
    </contour>
    <contour>
      <point x="116" y="878" type="qcurve" smooth="yes"/>
      <point x="116" y="939"/>
      <point x="229" y="1012"/>
      <point x="339" y="1012" type="qcurve" smooth="yes"/>
      <point x="510" y="1012" type="line"/>
      <point x="510" y="913" type="line"/>
      <point x="510" y="853"/>
      <point x="370" y="747"/>
      <point x="284" y="747" type="qcurve" smooth="yes"/>
      <point x="198" y="747"/>
      <point x="116" y="816"/>
    </contour>
  </outline>
</glyph>
<glyph name="registered" format="1">
  <advance width="1538"/>
  <unicode hex="00AE"/>
  <outline>
    <contour>
      <point x="94" y="698" type="qcurve" smooth="yes"/>
      <point x="94" y="364"/>
      <point x="494" y="-82"/>
      <point x="769" y="-82" type="qcurve" smooth="yes"/>
      <point x="1044" y="-82"/>
      <point x="1444" y="364"/>
      <point x="1444" y="698" type="qcurve" smooth="yes"/>
      <point x="1444" y="1032"/>
      <point x="1044" y="1478"/>
      <point x="769" y="1478" type="qcurve" smooth="yes"/>
      <point x="494" y="1478"/>
      <point x="94" y="1032"/>
    </contour>
    <contour>
      <point x="146" y="698" type="qcurve" smooth="yes"/>
      <point x="146" y="962"/>
      <point x="503" y="1332"/>
      <point x="769" y="1332" type="qcurve" smooth="yes"/>
      <point x="1035" y="1332"/>
      <point x="1392" y="962"/>
      <point x="1392" y="698" type="qcurve" smooth="yes"/>
      <point x="1392" y="434"/>
      <point x="1035" y="64"/>
      <point x="769" y="64" type="qcurve" smooth="yes"/>
      <point x="503" y="64"/>
      <point x="146" y="434"/>
    </contour>
    <contour>
      <point x="576" y="284" type="line"/>
      <point x="628" y="284" type="line"/>
      <point x="628" y="592" type="line"/>
      <point x="778" y="592" type="line" smooth="yes"/>
      <point x="871" y="592"/>
      <point x="992" y="742"/>
      <point x="992" y="867" type="qcurve" smooth="yes"/>
      <point x="992" y="992"/>
      <point x="871" y="1132"/>
      <point x="778" y="1132" type="qcurve" smooth="yes"/>
      <point x="576" y="1132" type="line"/>
    </contour>
    <contour>
      <point x="628" y="720" type="line"/>
      <point x="628" y="1004" type="line"/>
      <point x="778" y="1004" type="line" smooth="yes"/>
      <point x="858" y="1004"/>
      <point x="940" y="932"/>
      <point x="940" y="862" type="qcurve" smooth="yes"/>
      <point x="940" y="792"/>
      <point x="858" y="720"/>
      <point x="778" y="720" type="qcurve" smooth="yes"/>
    </contour>
    <contour>
      <point x="988" y="284" type="line"/>
      <point x="1052" y="284" type="line"/>
      <point x="828" y="657" type="line"/>
      <point x="772" y="657" type="line"/>
    </contour>
  </outline>
</glyph>
<glyph name="macron" format="1">
  <advance width="1024"/>
  <unicode hex="00AF"/>
  <outline>
    <contour>
      <point x="250" y="1176" type="line"/>
      <point x="774" y="1176" type="line"/>
      <point x="774" y="1330" type="line"/>
      <point x="250" y="1330" type="line"/>
    </contour>
  </outline>
</glyph>
<glyph name="plusminus" format="1">
  <advance width="1170"/>
  <unicode hex="00B1"/>
  <outline>
    <contour>
      <point x="200" y="626" type="line"/>
      <point x="970" y="626" type="line"/>
      <point x="970" y="786" type="line"/>
      <point x="200" y="786" type="line"/>
    </contour>
    <contour>
      <point x="558" y="250" type="line"/>
      <point x="612" y="250" type="line"/>
      <point x="612" y="1200" type="line"/>
      <point x="558" y="1200" type="line"/>
    </contour>
    <contour>
      <point x="200" y="0" type="line"/>
      <point x="970" y="0" type="line"/>
      <point x="970" y="160" type="line"/>
      <point x="200" y="160" type="line"/>
    </contour>
  </outline>
</glyph>
<glyph name="mu.math" format="1">
  <advance width="884"/>
  <unicode hex="00B5"/>
  <outline>
    <contour>
      <point x="148" y="-416" type="line"/>
      <point x="194" y="-416" type="line"/>
      <point x="194" y="52" type="line"/>
      <point x="226" y="18"/>
      <point x="343" y="-20"/>
      <point x="413" y="-20" type="qcurve" smooth="yes"/>
      <point x="498" y="-20"/>
      <point x="642" y="66"/>
      <point x="686" y="135" type="qcurve"/>
      <point x="688" y="135" type="line"/>
      <point x="688" y="0" type="line"/>
      <point x="736" y="0" type="line"/>
      <point x="736" y="1052" type="line"/>
      <point x="682" y="1052" type="line"/>
      <point x="682" y="308" type="line"/>
      <point x="643" y="232"/>
      <point x="508" y="136"/>
      <point x="418" y="136" type="qcurve" smooth="yes"/>
      <point x="313" y="136"/>
      <point x="202" y="245"/>
      <point x="202" y="371" type="qcurve" smooth="yes"/>
      <point x="202" y="1052" type="line"/>
      <point x="148" y="1052" type="line"/>
    </contour>
  </outline>
</glyph>
<glyph name="periodcentered" format="1">
  <advance width="424"/>
  <unicode hex="00B7"/>
  <outline>
    <contour>
      <point x="160" y="730" type="qcurve" smooth="yes"/>
      <point x="160" y="678"/>
      <point x="187" y="605"/>
      <point x="212" y="605" type="qcurve" smooth="yes"/>
      <point x="237" y="605"/>
      <point x="264" y="678"/>
      <point x="264" y="730" type="qcurve" smooth="yes"/>
      <point x="264" y="782"/>
      <point x="237" y="855"/>
      <point x="212" y="855" type="qcurve" smooth="yes"/>
      <point x="187" y="855"/>
      <point x="160" y="782"/>
    </contour>
  </outline>
</glyph>
<glyph name="cedilla" format="1">
  <advance width="1024"/>
  <unicode hex="00B8"/>
  <outline>
    <contour>
      <point x="488" y="0" type="line"/>
      <point x="428" y="-215" type="line"/>
      <point x="522" y="-215"/>
      <point x="602" y="-260"/>
      <point x="602" y="-300" type="qcurve" smooth="yes"/>
      <point x="602" y="-350"/>
      <point x="480" y="-408"/>
      <point x="346" y="-408" type="qcurve"/>
      <point x="348" y="-536" type="line"/>
      <point x="520" y="-536"/>
      <point x="652" y="-400"/>
      <point x="652" y="-300" type="qcurve" smooth="yes"/>
      <point x="652" y="-220"/>
      <point x="570" y="-130"/>
      <point x="491" y="-113" type="qcurve"/>
      <point x="542" y="0" type="line"/>
    </contour>
  </outline>
</glyph>
<glyph name="guillemetright" format="1">
  <advance width="834"/>
  <unicode hex="00BB"/>
  <outline>
    <contour>
      <point x="126" y="204" type="line"/>
      <point x="442" y="592" type="line"/>
      <point x="442" y="612" type="line"/>
      <point x="126" y="1000" type="line"/>
      <point x="66" y="1000" type="line"/>
      <point x="378" y="602" type="line"/>
      <point x="66" y="204" type="line"/>
    </contour>
    <contour>
      <point x="446" y="204" type="line"/>
      <point x="762" y="592" type="line"/>
      <point x="762" y="612" type="line"/>
      <point x="446" y="1000" type="line"/>
      <point x="386" y="1000" type="line"/>
      <point x="698" y="602" type="line"/>
      <point x="386" y="204" type="line"/>
    </contour>
  </outline>
</glyph>
<glyph name="questiondown" format="1">
  <advance width="708"/>
  <unicode hex="00BF"/>
  <outline>
    <contour>
      <point x="94" y="76" type="qcurve" smooth="yes"/>
      <point x="94" y="-94"/>
      <point x="240" y="-300"/>
      <point x="368" y="-300" type="qcurve" smooth="yes"/>
      <point x="498" y="-300"/>
      <point x="648" y="-104"/>
      <point x="648" y="61" type="qcurve" smooth="yes"/>
      <point x="648" y="81" type="line"/>
      <point x="593" y="81" type="line"/>
      <point x="593" y="61" type="line" smooth="yes"/>
      <point x="593" y="-34"/>
      <point x="478" y="-138"/>
      <point x="368" y="-138" type="qcurve" smooth="yes"/>
      <point x="258" y="-138"/>
      <point x="149" y="-24"/>
      <point x="149" y="76" type="qcurve" smooth="yes"/>
      <point x="149" y="176"/>
      <point x="213" y="312"/>
      <point x="286" y="393" type="qcurve" smooth="yes"/>
      <point x="359" y="487"/>
      <point x="436" y="631"/>
      <point x="436" y="756" type="qcurve" smooth="yes"/>
      <point x="436" y="766" type="line"/>
      <point x="381" y="766" type="line"/>
      <point x="381" y="756" type="line" smooth="yes"/>
      <point x="381" y="686"/>
      <point x="328" y="559"/>
      <point x="248" y="482" type="qcurve" smooth="yes"/>
      <point x="168" y="418"/>
      <point x="94" y="210"/>
    </contour>
    <contour>
      <point x="354" y="1079" type="qcurve" smooth="yes"/>
      <point x="354" y="1030"/>
      <point x="381" y="960"/>
      <point x="406" y="960" type="qcurve" smooth="yes"/>
      <point x="431" y="960"/>
      <point x="458" y="1030"/>
      <point x="458" y="1079" type="qcurve" smooth="yes"/>
      <point x="458" y="1128"/>
      <point x="431" y="1198"/>
      <point x="406" y="1198" type="qcurve" smooth="yes"/>
      <point x="381" y="1198"/>
      <point x="354" y="1128"/>
    </contour>
  </outline>
</glyph>
<glyph name="Oslash" format="1">
  <advance width="1182"/>
  <unicode hex="00D8"/>
  <outline>
    <contour>
      <point x="29" y="-80" type="line"/>
      <point x="93" y="-80" type="line"/>
      <point x="244" y="150" type="line"/>
      <point x="244" y="150" type="line"/>
      <point x="622" y="726" type="line"/>
      <point x="560" y="726" type="line"/>
      <point x="247" y="250" type="line"/>
      <point x="247" y="250" type="line"/>
    </contour>
    <contour>
      <point x="560" y="726" type="line"/>
      <point x="622" y="726" type="line"/>
      <point x="935" y="1202" type="line"/>
      <point x="935" y="1202" type="line"/>
      <point x="1153" y="1532" type="line"/>
      <point x="1089" y="1532" type="line"/>
      <point x="938" y="1302" type="line"/>
      <point x="938" y="1302" type="line"/>
    </contour>
    <contour>
      <point x="115" y="682" type="line" smooth="yes"/>
      <point x="115" y="346"/>
      <point x="381" y="-30"/>
      <point x="591" y="-30" type="qcurve" smooth="yes"/>
      <point x="801" y="-30"/>
      <point x="1067" y="346"/>
      <point x="1067" y="682" type="qcurve" smooth="yes"/>
      <point x="1067" y="774" type="line" smooth="yes"/>
      <point x="1067" y="1110"/>
      <point x="801" y="1486"/>
      <point x="591" y="1486" type="qcurve" smooth="yes"/>
      <point x="381" y="1486"/>
      <point x="115" y="1110"/>
      <point x="115" y="774" type="qcurve" smooth="yes"/>
    </contour>
    <contour>
      <point x="170" y="682" type="qcurve" smooth="yes"/>
      <point x="170" y="774" type="line" smooth="yes"/>
      <point x="170" y="1030"/>
      <point x="403" y="1322"/>
      <point x="591" y="1322" type="qcurve" smooth="yes"/>
      <point x="779" y="1322"/>
      <point x="1012" y="1030"/>
      <point x="1012" y="774" type="qcurve" smooth="yes"/>
      <point x="1012" y="682" type="line" smooth="yes"/>
      <point x="1012" y="426"/>
      <point x="779" y="134"/>
      <point x="591" y="134" type="qcurve" smooth="yes"/>
      <point x="403" y="134"/>
      <point x="170" y="426"/>
    </contour>
  </outline>
</glyph>
<glyph name="Thorn" format="1">
  <advance width="975"/>
  <unicode hex="00DE"/>
  <outline>
    <contour>
      <point x="170" y="0" type="line"/>
      <point x="224" y="0" type="line"/>
      <point x="224" y="290" type="line"/>
      <point x="514" y="290" type="line" smooth="yes"/>
      <point x="700" y="290"/>
      <point x="875" y="535"/>
      <point x="875" y="735" type="qcurve" smooth="yes"/>
      <point x="875" y="935"/>
      <point x="700" y="1176"/>
      <point x="514" y="1176" type="qcurve" smooth="yes"/>
      <point x="224" y="1176" type="line"/>
      <point x="224" y="1456" type="line"/>
      <point x="170" y="1456" type="line"/>
    </contour>
    <contour>
      <point x="224" y="448" type="line"/>
      <point x="224" y="1018" type="line"/>
      <point x="514" y="1018" type="line" smooth="yes"/>
      <point x="684" y="1018"/>
      <point x="820" y="855"/>
      <point x="820" y="735" type="qcurve" smooth="yes"/>
      <point x="820" y="615"/>
      <point x="684" y="448"/>
      <point x="514" y="448" type="qcurve" smooth="yes"/>
    </contour>
  </outline>
</glyph>
<glyph name="germandbls" format="1">
  <advance width="948"/>
  <unicode hex="00DF"/>
  <outline>
    <contour>
      <point x="140" y="0" type="line"/>
      <point x="194" y="0" type="line"/>
      <point x="194" y="1110" type="line" smooth="yes"/>
      <point x="194" y="1260"/>
      <point x="308" y="1404"/>
      <point x="408" y="1404" type="qcurve" smooth="yes"/>
      <point x="508" y="1404"/>
      <point x="602" y="1290"/>
      <point x="602" y="1210" type="qcurve" smooth="yes"/>
      <point x="602" y="1154"/>
      <point x="568" y="1067"/>
      <point x="542" y="1029" type="qcurve" smooth="yes"/>
      <point x="514" y="984"/>
      <point x="464" y="888"/>
      <point x="464" y="822" type="qcurve" smooth="yes"/>
      <point x="464" y="730"/>
      <point x="557" y="603"/>
      <point x="616" y="553" type="qcurve" smooth="yes"/>
      <point x="691" y="494"/>
      <point x="813" y="385"/>
      <point x="813" y="308" type="qcurve" smooth="yes"/>
      <point x="813" y="231"/>
      <point x="708" y="132"/>
      <point x="608" y="132" type="qcurve" smooth="yes"/>
      <point x="534" y="132"/>
      <point x="408" y="182"/>
      <point x="374" y="206" type="qcurve"/>
      <point x="344" y="60" type="line"/>
      <point x="382" y="30"/>
      <point x="528" y="-20"/>
      <point x="618" y="-20" type="qcurve" smooth="yes"/>
      <point x="725" y="-20"/>
      <point x="868" y="150"/>
      <point x="868" y="316" type="qcurve" smooth="yes"/>
      <point x="868" y="436"/>
      <point x="713" y="593"/>
      <point x="638" y="657" type="qcurve" smooth="yes"/>
      <point x="586" y="695"/>
      <point x="518" y="769"/>
      <point x="518" y="820" type="qcurve" smooth="yes"/>
      <point x="518" y="867"/>
      <point x="552" y="939"/>
      <point x="575" y="975" type="qcurve" smooth="yes"/>
      <point x="604" y="1019"/>
      <point x="657" y="1130"/>
      <point x="657" y="1220" type="qcurve" smooth="yes"/>
      <point x="657" y="1360"/>
      <point x="528" y="1556"/>
      <point x="408" y="1556" type="qcurve" smooth="yes"/>
      <point x="288" y="1556"/>
      <point x="140" y="1330"/>
      <point x="140" y="1110" type="qcurve" smooth="yes"/>
    </contour>
  </outline>
</glyph>
<glyph name="ae" format="1">
  <advance width="1313"/>
  <unicode hex="00E6"/>
  <outline>
    <contour>
      <point x="90" y="310" type="qcurve" smooth="yes"/>
      <point x="90" y="150"/>
      <point x="223" y="-20"/>
      <point x="338" y="-20" type="qcurve" smooth="yes"/>
      <point x="452" y="-20"/>
      <point x="623" y="90"/>
      <point x="664" y="164" type="qcurve"/>
      <point x="704" y="73"/>
      <point x="867" y="-30"/>
      <point x="986" y="-30" type="qcurve" smooth="yes"/>
      <point x="1086" y="-30"/>
      <point x="1221" y="102"/>
      <point x="1261" y="175" type="qcurve"/>
      <point x="1221" y="270" type="line"/>
      <point x="1176" y="212"/>
      <point x="1066" y="122"/>
      <point x="986" y="122" type="qcurve" smooth="yes"/>
      <point x="829" y="122"/>
      <point x="680" y="347"/>
      <point x="680" y="510" type="qcurve" smooth="yes"/>
      <point x="680" y="542" type="line" smooth="yes"/>
      <point x="680" y="705"/>
      <point x="821" y="930"/>
      <point x="956" y="930" type="qcurve" smooth="yes"/>
      <point x="1091" y="930"/>
      <point x="1203" y="760"/>
      <point x="1203" y="632" type="qcurve"/>
      <point x="1203" y="632" type="line"/>
      <point x="653" y="632" type="line"/>
      <point x="653" y="484" type="line"/>
      <point x="1257" y="484" type="line"/>
      <point x="1257" y="560" type="line" smooth="yes"/>
      <point x="1257" y="800"/>
      <point x="1101" y="1082"/>
      <point x="956" y="1082" type="qcurve" smooth="yes"/>
      <point x="859" y="1082"/>
      <point x="712" y="1001"/>
      <point x="671" y="928" type="qcurve"/>
      <point x="652" y="1002"/>
      <point x="524" y="1082"/>
      <point x="423" y="1082" type="qcurve" smooth="yes"/>
      <point x="291" y="1082"/>
      <point x="155" y="895"/>
      <point x="155" y="770" type="qcurve" smooth="yes"/>
      <point x="155" y="765" type="line"/>
      <point x="205" y="765" type="line"/>
      <point x="205" y="770" type="line" smooth="yes"/>
      <point x="205" y="835"/>
      <point x="303" y="934"/>
      <point x="418" y="934" type="qcurve" smooth="yes"/>
      <point x="532" y="934"/>
      <point x="626" y="815"/>
      <point x="626" y="720" type="qcurve" smooth="yes"/>
      <point x="626" y="648" type="line"/>
      <point x="398" y="648" type="line" smooth="yes"/>
      <point x="263" y="648"/>
      <point x="90" y="470"/>
    </contour>
    <contour>
      <point x="144" y="320" type="qcurve" smooth="yes"/>
      <point x="144" y="410"/>
      <point x="283" y="516"/>
      <point x="418" y="516" type="qcurve" smooth="yes"/>
      <point x="626" y="516" type="line"/>
      <point x="626" y="365" type="line"/>
      <point x="626" y="280"/>
      <point x="454" y="128"/>
      <point x="348" y="128" type="qcurve" smooth="yes"/>
      <point x="243" y="128"/>
      <point x="144" y="230"/>
    </contour>
  </outline>
</glyph>
<glyph name="OE" format="1">
  <advance width="1615"/>
  <unicode hex="0152"/>
  <outline>
    <contour>
      <point x="115" y="682" type="line" smooth="yes"/>
      <point x="115" y="346"/>
      <point x="382" y="-30"/>
      <point x="591" y="-30" type="qcurve" smooth="yes"/>
      <point x="680" y="-30"/>
      <point x="848" y="50"/>
      <point x="899" y="128" type="qcurve"/>
      <point x="899" y="386" type="line"/>
      <point x="853" y="265"/>
      <point x="696" y="134"/>
      <point x="591" y="134" type="qcurve" smooth="yes"/>
      <point x="401" y="134"/>
      <point x="170" y="426"/>
      <point x="170" y="682" type="qcurve" smooth="yes"/>
      <point x="170" y="774" type="line" smooth="yes"/>
      <point x="170" y="1030"/>
      <point x="401" y="1322"/>
      <point x="591" y="1322" type="qcurve" smooth="yes"/>
      <point x="696" y="1322"/>
      <point x="853" y="1191"/>
      <point x="899" y="1070" type="qcurve"/>
      <point x="899" y="1328" type="line"/>
      <point x="848" y="1406"/>
      <point x="680" y="1486"/>
      <point x="591" y="1486" type="qcurve" smooth="yes"/>
      <point x="382" y="1486"/>
      <point x="115" y="1110"/>
      <point x="115" y="774" type="qcurve" smooth="yes"/>
    </contour>
    <contour>
      <point x="871" y="0" type="line"/>
      <point x="1547" y="0" type="line"/>
      <point x="1547" y="158" type="line"/>
      <point x="925" y="158" type="line"/>
      <point x="925" y="672" type="line"/>
      <point x="1445" y="672" type="line"/>
      <point x="1445" y="830" type="line"/>
      <point x="925" y="830" type="line"/>
      <point x="925" y="1298" type="line"/>
      <point x="1537" y="1298" type="line"/>
      <point x="1537" y="1456" type="line"/>
      <point x="871" y="1456" type="line"/>
    </contour>
  </outline>
</glyph>
<glyph name="tilde" format="1">
  <advance width="1024"/>
  <unicode hex="02DC"/>
  <outline>
    <contour>
      <point x="234" y="1154" type="qcurve"/>
      <point x="284" y="1148" type="line"/>
      <point x="284.0" y="1196.0"/>
      <point x="330.0" y="1258.0"/>
      <point x="380" y="1258" type="qcurve" smooth="yes"/>
      <point x="430.0" y="1258.0"/>
      <point x="578.0" y="1160.0"/>
      <point x="646" y="1160" type="qcurve" smooth="yes"/>
      <point x="714" y="1160"/>
      <point x="792" y="1300"/>
      <point x="792" y="1406" type="qcurve"/>
      <point x="742" y="1412" type="line"/>
      <point x="742.0" y="1364.0"/>
      <point x="696.0" y="1302.0"/>
      <point x="646" y="1302" type="qcurve" smooth="yes"/>
      <point x="596.0" y="1302.0"/>
      <point x="448" y="1400"/>
      <point x="380" y="1400" type="qcurve" smooth="yes"/>
      <point x="312" y="1400"/>
      <point x="234" y="1260"/>
    </contour>
  </outline>
</glyph>
<glyph name="Germandbls" format="1">
  <advance width="1074"/>
  <unicode hex="1E9E"/>
  <outline>
    <contour>
      <point x="170" y="0" type="line"/>
      <point x="224" y="0" type="line"/>
      <point x="224" y="1040" type="line" smooth="yes"/>
      <point x="224" y="1180.0"/>
      <point x="392" y="1322"/>
      <point x="532" y="1322" type="qcurve" smooth="yes"/>
      <point x="672" y="1322"/>
      <point x="812" y="1210"/>
      <point x="812" y="1110" type="qcurve"/>
      <point x="515" y="840" type="line"/>
      <point x="535" y="690" type="line"/>
      <point x="729" y="660"/>
      <point x="910" y="530"/>
      <point x="910" y="430" type="qcurve" smooth="yes"/>
      <point x="910" y="390" type="line" smooth="yes"/>
      <point x="910" y="270"/>
      <point x="722.0" y="138.0"/>
      <point x="572" y="138" type="qcurve" smooth="yes"/>
      <point x="532.0" y="138.0"/>
      <point x="438.27874042732384" y="148.0"/>
      <point x="412" y="153" type="qcurve"/>
      <point x="406" y="-4" type="line"/>
      <point x="438.4312849172818" y="-10.0"/>
      <point x="537.1020408163265" y="-20.0"/>
      <point x="582" y="-20" type="qcurve" smooth="yes"/>
      <point x="757.632183908046" y="-20.0"/>
      <point x="964" y="210"/>
      <point x="964" y="390" type="qcurve" smooth="yes"/>
      <point x="964" y="430" type="line" smooth="yes"/>
      <point x="964" y="580"/>
      <point x="752" y="780"/>
      <point x="568" y="810" type="qcurve"/>
      <point x="568" y="820" type="line"/>
      <point x="866" y="1050" type="line"/>
      <point x="866" y="1070" type="line" smooth="yes"/>
      <point x="866" y="1250.0"/>
      <point x="687.0210970464135" y="1486.0"/>
      <point x="532" y="1486" type="qcurve" smooth="yes"/>
      <point x="373" y="1486"/>
      <point x="170" y="1260"/>
      <point x="170" y="1040" type="qcurve" smooth="yes"/>
    </contour>
  </outline>
</glyph>
<glyph name="quotedblbase" format="1">
  <advance width="604"/>
  <unicode hex="201E"/>
  <outline>
    <contour>
      <point x="96" y="-188" type="qcurve"/>
      <point x="146" y="-261" type="line"/>
      <point x="178" y="-194"/>
      <point x="212" y="-10"/>
      <point x="212" y="100" type="qcurve" smooth="yes"/>
      <point x="212" y="220" type="line"/>
      <point x="140" y="220" type="line"/>
      <point x="140" y="100" type="line" smooth="yes"/>
      <point x="140" y="10"/>
      <point x="118" y="-124"/>
    </contour>
    <contour>
      <point x="368" y="-188" type="qcurve"/>
      <point x="418" y="-261" type="line"/>
      <point x="450" y="-194"/>
      <point x="484" y="-10"/>
      <point x="484" y="100" type="qcurve" smooth="yes"/>
      <point x="484" y="220" type="line"/>
      <point x="412" y="220" type="line"/>
      <point x="412" y="100" type="line" smooth="yes"/>
      <point x="412" y="10"/>
      <point x="390" y="-124"/>
    </contour>
  </outline>
</glyph>
<glyph name="dagger" format="1">
  <advance width="1050"/>
  <unicode hex="2020"/>
  <outline>
    <contour>
      <point x="505" y="-220" type="line"/>
      <point x="545" y="-220" type="line"/>
      <point x="550" y="524" type="line"/>
      <point x="545" y="1020" type="line"/>
      <point x="555" y="1516" type="line"/>
      <point x="495" y="1516" type="line"/>
      <point x="505" y="1020" type="line"/>
      <point x="500" y="524" type="line"/>
    </contour>
    <contour>
      <point x="70" y="930" type="line"/>
      <point x="525" y="950" type="line"/>
      <point x="980" y="930" type="line"/>
      <point x="980" y="1120" type="line"/>
      <point x="525" y="1100" type="line"/>
      <point x="70" y="1120" type="line"/>
    </contour>
  </outline>
</glyph>
<glyph name="bullet" format="1">
  <advance width="528"/>
  <unicode hex="2022"/>
  <outline>
    <contour>
      <point x="164" y="734" type="line" smooth="yes"/>
      <point x="164" y="648"/>
      <point x="220" y="536"/>
      <point x="264" y="536" type="qcurve" smooth="yes"/>
      <point x="308" y="536"/>
      <point x="364" y="648"/>
      <point x="364" y="734" type="qcurve" smooth="yes"/>
      <point x="364" y="774" type="line" smooth="yes"/>
      <point x="364" y="860"/>
      <point x="308" y="972"/>
      <point x="264" y="972" type="qcurve" smooth="yes"/>
      <point x="220" y="972"/>
      <point x="164" y="860"/>
      <point x="164" y="774" type="qcurve" smooth="yes"/>
    </contour>
  </outline>
</glyph>
<glyph name="ellipsis" format="1">
  <advance width="1272"/>
  <unicode hex="2026"/>
  <outline>
    <contour>
      <point x="160" y="103" type="qcurve" smooth="yes"/>
      <point x="160" y="51"/>
      <point x="187" y="-22"/>
      <point x="212" y="-22" type="qcurve" smooth="yes"/>
      <point x="237" y="-22"/>
      <point x="264" y="51"/>
      <point x="264" y="103" type="qcurve" smooth="yes"/>
      <point x="264" y="155"/>
      <point x="237" y="228"/>
      <point x="212" y="228" type="qcurve" smooth="yes"/>
      <point x="187" y="228"/>
      <point x="160" y="155"/>
    </contour>
    <contour>
      <point x="584" y="103" type="qcurve" smooth="yes"/>
      <point x="584" y="51"/>
      <point x="611" y="-22"/>
      <point x="636" y="-22" type="qcurve" smooth="yes"/>
      <point x="661" y="-22"/>
      <point x="688" y="51"/>
      <point x="688" y="103" type="qcurve" smooth="yes"/>
      <point x="688" y="155"/>
      <point x="661" y="228"/>
      <point x="636" y="228" type="qcurve" smooth="yes"/>
      <point x="611" y="228"/>
      <point x="584" y="155"/>
    </contour>
    <contour>
      <point x="1008" y="103" type="qcurve" smooth="yes"/>
      <point x="1008" y="51"/>
      <point x="1035" y="-22"/>
      <point x="1060" y="-22" type="qcurve" smooth="yes"/>
      <point x="1085" y="-22"/>
      <point x="1112" y="51"/>
      <point x="1112" y="103" type="qcurve" smooth="yes"/>
      <point x="1112" y="155"/>
      <point x="1085" y="228"/>
      <point x="1060" y="228" type="qcurve" smooth="yes"/>
      <point x="1035" y="228"/>
      <point x="1008" y="155"/>
    </contour>
  </outline>
</glyph>
<glyph name="perthousand" format="1">
  <advance width="1885"/>
  <unicode hex="2030"/>
  <outline>
    <contour>
      <point x="70" y="1016" type="line" smooth="yes"/>
      <point x="70" y="856.0"/>
      <point x="170.0" y="660.0"/>
      <point x="280" y="660" type="qcurve" smooth="yes"/>
      <point x="390.0" y="660.0"/>
      <point x="490" y="856.0"/>
      <point x="490" y="1016" type="qcurve" smooth="yes"/>
      <point x="490" y="1120" type="line" smooth="yes"/>
      <point x="490" y="1280.0"/>
      <point x="390.0" y="1476.0"/>
      <point x="280" y="1476" type="qcurve" smooth="yes"/>
      <point x="170.0" y="1476.0"/>
      <point x="70" y="1280.0"/>
      <point x="70" y="1120" type="qcurve" smooth="yes"/>
    </contour>
    <contour>
      <point x="120" y="1016" type="qcurve" smooth="yes"/>
      <point x="120" y="1120" type="line" smooth="yes"/>
      <point x="120" y="1210.0"/>
      <point x="190.0" y="1326.0"/>
      <point x="280" y="1326" type="qcurve" smooth="yes"/>
      <point x="370.0" y="1326.0"/>
      <point x="440" y="1210.0"/>
      <point x="440" y="1120" type="qcurve" smooth="yes"/>
      <point x="440" y="1016" type="line" smooth="yes"/>
      <point x="440" y="926.0"/>
      <point x="370.0" y="810.0"/>
      <point x="280" y="810" type="qcurve" smooth="yes"/>
      <point x="190.0" y="810.0"/>
      <point x="120" y="926.0"/>
    </contour>
    <contour>
      <point x="205" y="58" type="line"/>
      <point x="249" y="-30" type="line"/>
      <point x="1140" y="1398" type="line"/>
      <point x="1096" y="1486" type="line"/>
    </contour>
    <contour>
      <point x="855" y="336" type="line" smooth="yes"/>
      <point x="855" y="176"/>
      <point x="955" y="-20"/>
      <point x="1065" y="-20" type="qcurve" smooth="yes"/>
      <point x="1175" y="-20"/>
      <point x="1275" y="176"/>
      <point x="1275" y="336" type="qcurve" smooth="yes"/>
      <point x="1275" y="440" type="line" smooth="yes"/>
      <point x="1275" y="600"/>
      <point x="1175" y="796"/>
      <point x="1065" y="796" type="qcurve" smooth="yes"/>
      <point x="955" y="796"/>
      <point x="855" y="600"/>
      <point x="855" y="440" type="qcurve" smooth="yes"/>
    </contour>
    <contour>
      <point x="905" y="336" type="qcurve" smooth="yes"/>
      <point x="905" y="440" type="line" smooth="yes"/>
      <point x="905" y="530"/>
      <point x="975" y="646"/>
      <point x="1065" y="646" type="qcurve" smooth="yes"/>
      <point x="1155" y="646"/>
      <point x="1225" y="530"/>
      <point x="1225" y="440" type="qcurve" smooth="yes"/>
      <point x="1225" y="336" type="line" smooth="yes"/>
      <point x="1225" y="246"/>
      <point x="1155" y="130"/>
      <point x="1065" y="130" type="qcurve" smooth="yes"/>
      <point x="975" y="130"/>
      <point x="905" y="246"/>
    </contour>
    <contour>
      <point x="1395" y="336" type="line" smooth="yes"/>
      <point x="1395" y="176"/>
      <point x="1495" y="-20"/>
      <point x="1605" y="-20" type="qcurve" smooth="yes"/>
      <point x="1715" y="-20"/>
      <point x="1815" y="176"/>
      <point x="1815" y="336" type="qcurve" smooth="yes"/>
      <point x="1815" y="440" type="line" smooth="yes"/>
      <point x="1815" y="600"/>
      <point x="1715" y="796"/>
      <point x="1605" y="796" type="qcurve" smooth="yes"/>
      <point x="1495" y="796"/>
      <point x="1395" y="600"/>
      <point x="1395" y="440" type="qcurve" smooth="yes"/>
    </contour>
    <contour>
      <point x="1445" y="336" type="qcurve" smooth="yes"/>
      <point x="1445" y="440" type="line" smooth="yes"/>
      <point x="1445" y="530"/>
      <point x="1515" y="646"/>
      <point x="1605" y="646" type="qcurve" smooth="yes"/>
      <point x="1695" y="646"/>
      <point x="1765" y="530"/>
      <point x="1765" y="440" type="qcurve" smooth="yes"/>
      <point x="1765" y="336" type="line" smooth="yes"/>
      <point x="1765" y="246"/>
      <point x="1695" y="130"/>
      <point x="1605" y="130" type="qcurve" smooth="yes"/>
      <point x="1515" y="130"/>
      <point x="1445" y="246"/>
    </contour>
  </outline>
</glyph>
<glyph name="fraction" format="1">
  <advance width="1031"/>
  <unicode hex="2044"/>
  <outline>
    <contour>
      <point x="30" y="58" type="line"/>
      <point x="72" y="-30" type="line"/>
      <point x="1001" y="1398" type="line"/>
      <point x="959" y="1486" type="line"/>
    </contour>
  </outline>
</glyph>
<glyph name="Euro" format="1">
  <advance width="882"/>
  <unicode hex="20AC"/>
  <outline>
    <contour>
      <point x="170" y="642" type="line" smooth="yes"/>
      <point x="170" y="316"/>
      <point x="368" y="-30"/>
      <point x="544" y="-30" type="qcurve" smooth="yes"/>
      <point x="696" y="-30"/>
      <point x="852" y="219"/>
      <point x="852" y="396" type="qcurve" smooth="yes"/>
      <point x="852" y="406" type="line"/>
      <point x="800" y="406" type="line"/>
      <point x="800" y="396" type="line" smooth="yes"/>
      <point x="800" y="286"/>
      <point x="684" y="134"/>
      <point x="544" y="134" type="qcurve" smooth="yes"/>
      <point x="394" y="134"/>
      <point x="224" y="376"/>
      <point x="224" y="642" type="qcurve" smooth="yes"/>
      <point x="224" y="814" type="line" smooth="yes"/>
      <point x="224" y="1080"/>
      <point x="394" y="1322"/>
      <point x="544" y="1322" type="qcurve" smooth="yes"/>
      <point x="684" y="1322"/>
      <point x="800" y="1170"/>
      <point x="800" y="1060" type="qcurve" smooth="yes"/>
      <point x="800" y="1050" type="line"/>
      <point x="852" y="1050" type="line"/>
      <point x="852" y="1060" type="line" smooth="yes"/>
      <point x="852" y="1237"/>
      <point x="696" y="1486"/>
      <point x="544" y="1486" type="qcurve" smooth="yes"/>
      <point x="368" y="1486"/>
      <point x="170" y="1140"/>
      <point x="170" y="814" type="qcurve" smooth="yes"/>
    </contour>
    <contour>
      <point x="30" y="486" type="line"/>
      <point x="724" y="486" type="line"/>
      <point x="724" y="642" type="line"/>
      <point x="30" y="642" type="line"/>
    </contour>
    <contour>
      <point x="30" y="814" type="line"/>
      <point x="724" y="814" type="line"/>
      <point x="724" y="970" type="line"/>
      <point x="30" y="970" type="line"/>
    </contour>
  </outline>
</glyph>
<glyph name="indianrupee" format="1">
  <advance width="992"/>
  <unicode hex="20B9"/>
  <outline>
    <contour>
      <point x="112" y="594" type="line"/>
      <point x="692" y="0" type="line"/>
      <point x="768" y="0" type="line"/>
      <point x="188" y="594" type="line"/>
      <point x="356" y="594" type="line" smooth="yes"/>
      <point x="552" y="594"/>
      <point x="746" y="834"/>
      <point x="746" y="1028" type="qcurve" smooth="yes"/>
      <point x="746" y="1108"/>
      <point x="652" y="1250"/>
      <point x="572" y="1300" type="qcurve"/>
      <point x="924" y="1300" type="line"/>
      <point x="936" y="1456" type="line"/>
      <point x="92" y="1456" type="line"/>
      <point x="80" y="1300" type="line"/>
      <point x="356" y="1300" type="line" smooth="yes"/>
      <point x="542" y="1300"/>
      <point x="692" y="1144"/>
      <point x="692" y="1028" type="qcurve" smooth="yes"/>
      <point x="692" y="912"/>
      <point x="542" y="750"/>
      <point x="356" y="750" type="qcurve" smooth="yes"/>
      <point x="124" y="750" type="line"/>
    </contour>
    <contour>
      <point x="108" y="940" type="line"/>
      <point x="912" y="940" type="line"/>
      <point x="924" y="1096" type="line"/>
      <point x="120" y="1096" type="line"/>
    </contour>
  </outline>
</glyph>
<glyph name="numero" format="1">
  <advance width="2010"/>
  <unicode hex="2116"/>
  <outline>
    <contour>
      <point x="170" y="0" type="line"/>
      <point x="224" y="0" type="line"/>
      <point x="224" y="990" type="line" smooth="yes"/>
      <point x="224" y="1020"/>
      <point x="220" y="1095"/>
      <point x="216" y="1125" type="qcurve"/>
      <point x="226" y="1125" type="line"/>
      <point x="240" y="1100"/>
      <point x="274" y="1041"/>
      <point x="294" y="1010" type="qcurve" smooth="yes"/>
      <point x="956" y="0" type="line"/>
      <point x="1022" y="0" type="line"/>
      <point x="1022" y="1456" type="line"/>
      <point x="968" y="1456" type="line"/>
      <point x="968" y="466" type="line" smooth="yes"/>
      <point x="968" y="436"/>
      <point x="972" y="361"/>
      <point x="976" y="331" type="qcurve"/>
      <point x="966" y="331" type="line"/>
      <point x="952" y="356"/>
      <point x="918" y="416"/>
      <point x="898" y="446" type="qcurve" smooth="yes"/>
      <point x="236" y="1456" type="line"/>
      <point x="170" y="1456" type="line"/>
    </contour>
    <contour>
      <point x="1182" y="130" type="line"/>
      <point x="1182" y="295" type="line"/>
      <point x="1890" y="295" type="line"/>
      <point x="1890" y="130" type="line"/>
    </contour>
    <contour>
      <point x="1182" y="964" type="qcurve" smooth="yes"/>
      <point x="1182" y="984" type="line" smooth="yes"/>
      <point x="1182" y="1194"/>
      <point x="1368" y="1476"/>
      <point x="1536" y="1476" type="qcurve" smooth="yes"/>
      <point x="1704" y="1476"/>
      <point x="1890" y="1194"/>
      <point x="1890" y="984" type="qcurve" smooth="yes"/>
      <point x="1890" y="964" type="line" smooth="yes"/>
      <point x="1890" y="754"/>
      <point x="1704" y="472"/>
      <point x="1536" y="472" type="qcurve" smooth="yes"/>
      <point x="1368" y="472"/>
      <point x="1182" y="754"/>
    </contour>
    <contour>
      <point x="1236" y="964" type="line" smooth="yes"/>
      <point x="1236" y="814"/>
      <point x="1388" y="624"/>
      <point x="1536" y="624" type="qcurve" smooth="yes"/>
      <point x="1684" y="624"/>
      <point x="1836" y="814"/>
      <point x="1836" y="964" type="qcurve" smooth="yes"/>
      <point x="1836" y="984" type="line" smooth="yes"/>
      <point x="1836" y="1134"/>
      <point x="1684" y="1324"/>
      <point x="1536" y="1324" type="qcurve" smooth="yes"/>
      <point x="1388" y="1324"/>
      <point x="1236" y="1134"/>
      <point x="1236" y="984" type="qcurve" smooth="yes"/>
    </contour>
  </outline>
</glyph>
<glyph name="fi" format="1">
  <advance width="866"/>
  <unicode hex="FB01"/>
  <outline>
    <contour>
      <point x="196" y="0" type="line"/>
      <point x="250" y="0" type="line"/>
      <point x="250" y="970" type="line"/>
      <point x="250" y="992" type="line"/>
      <point x="250" y="1180" type="line" smooth="yes"/>
      <point x="250" y="1290.0"/>
      <point x="358" y="1400"/>
      <point x="468" y="1400" type="qcurve" smooth="yes"/>
      <point x="516" y="1400"/>
      <point x="602" y="1366"/>
      <point x="640" y="1344" type="qcurve"/>
      <point x="658" y="1496" type="line"/>
      <point x="614" y="1524"/>
      <point x="518" y="1556"/>
      <point x="468" y="1556" type="qcurve" smooth="yes"/>
      <point x="340" y="1556"/>
      <point x="196" y="1364"/>
      <point x="196" y="1180" type="qcurve" smooth="yes"/>
    </contour>
    <contour>
      <point x="25" y="910" type="line"/>
      <point x="498" y="910" type="line"/>
      <point x="498" y="1052" type="line"/>
      <point x="228" y="1052" type="line"/>
      <point x="218" y="1052" type="line"/>
      <point x="25" y="1052" type="line"/>
    </contour>
    <contour>
      <point x="655" y="0" type="line"/>
      <point x="709" y="0" type="line"/>
      <point x="709" y="1052" type="line"/>
      <point x="655" y="1052" type="line"/>
    </contour>
  </outline>
</glyph>
